PathFileType	4	(X/Y/Z)	Kaydara																																																																																																																									
DataRate	CameraRate	NumFrames	NumMarkers	Units	OrigDataRate	OrigDataStartFrame	OrigNumFrames																																																																																																																					
30	30	4	41	mm	30	99	133																																																																																																																					
Frame#	Time	PAIB_LFHD			PAIB_RFHD			PAIB_LBHD			PAIB_RBHD			PAIB_LFTShould			PAIB_RFTShould			PAIB_LRRShould			PAIB_RRRShould			PAIB_T10			PAIB_STRN			PAIB_TRUN			PAIB_LSHO			PAIB_LUPA			PAIB_LELB			PAIB_LFRM			PAIB_LWRA			PAIB_LWRB			PAIB_LFIN			PAIB_RSHO			PAIB_RUPA			PAIB_RELB			PAIB_RFRM			PAIB_RWRA			PAIB_RWRB			PAIB_RFIN			PAIB_LFWT			PAIB_RFWT			PAIB_LBWT			PAIB_RBWT			PAIB_LTHI			PAIB_LKNE			PAIB_LSHN			PAIB_LANK			PAIB_LHEE			PAIB_LTOE			PAIB_RTHI			PAIB_RKNE			PAIB_RSHN			PAIB_RANK			PAIB_RHEE			PAIB_RTOE		
		X1	Y1	Z1	X2	Y2	Z2	X3	Y3	Z3	X4	Y4	Z4	X5	Y5	Z5	X6	Y6	Z6	X7	Y7	Z7	X8	Y8	Z8	X9	Y9	Z9	X10	Y10	Z10	X11	Y11	Z11	X12	Y12	Z12	X13	Y13	Z13	X14	Y14	Z14	X15	Y15	Z15	X16	Y16	Z16	X17	Y17	Z17	X18	Y18	Z18	X19	Y19	Z19	X20	Y20	Z20	X21	Y21	Z21	X22	Y22	Z22	X23	Y23	Z23	X24	Y24	Z24	X25	Y25	Z25	X26	Y26	Z26	X27	Y27	Z27	X28	Y28	Z28	X29	Y29	Z29	X30	Y30	Z30	X31	Y31	Z31	X32	Y32	Z32	X33	Y33	Z33	X34	Y34	Z34	X35	Y35	Z35	X36	Y36	Z36	X37	Y37	Z37	X38	Y38	Z38	X39	Y39	Z39	X40	Y40	Z40	X41	Y41	Z41
																																																																																																																												
84	3.267	227.38598	1657.46429	53.79894	43.15893	1639.33548	52.65362	244.48957	1569.19296	-40.23	40.99509	1565.21225	-36.78391	225.41718	1381.52649	140.58893	105.07441	1359.08493	129.10234	234.82756	1448.40485	-7.80873	84.13673	1420.746	-8.09534	185.02651	1277.37068	-89.21373	179.04427	1306.06873	174.61119	189.83683	1205.06119	196.67431	354.99859	1412.87979	67.49388	447.74662	1199.15604	58.13357	479.97982	1123.06892	20.06905	508.31745	1016.62537	81.08148	457.69512	913.58986	186.04259	502.91615	889.34647	121.19643	515.27752	865.86685	188.81329	-17.08105	1342.8598	62.30865	-66.0171	1167.53571	14.8317	-83.70082	1053.45726	6.08292	-107.06381	921.01906	39.20972	-72.66957	822.88918	155.21839	-125.87434	805.53543	91.35448	-135.19943	775.00816	158.03801	313.40576	913.43109	142.80093	79.5939	929.99069	152.10022	245.3389	958.56163	-72.73505	101.5076	966.73233	-66.94003	285.7892	673.25119	-49.57231	354.79671	433.05321	36.69382	312.8537	306.06678	-100.82018	298.63176	277.45333	-305.66666	240.50619	316.0511	-330.66933	282.29185	99.98248	-292.70643	46.65005	657.74666	20.51395	62.98453	451.71738	180.25206	138.0031	268.83318	186.27127	122.79674	74.23687	86.03201	189.19518	89.47635	33.87786	139.32777	54.19453	252.0237
85	3.3	225.1602	1672.11365	104.91835	41.1034	1652.04559	105.49863	242.24636	1584.7966	10.08364	39.08894	1578.59833	15.04743	226.40709	1395.35095	188.08525	105.63376	1374.44611	179.63932	232.64547	1460.53421	40.01828	82.38683	1435.2626	41.91962	179.80839	1289.841	-39.10512	180.21284	1320.67947	223.58931	190.50398	1219.66225	246.02354	355.23354	1424.77219	110.79085	447.14046	1211.129	96.27378	477.13665	1135.88364	54.40253	515.48695	1027.87857	102.3929	478.02094	910.46135	198.36229	519.89056	896.55899	129.43888	536.62983	865.07553	193.19296	-17.16985	1358.83636	115.91124	-67.50809	1182.01614	81.86857	-84.9336	1066.97655	80.76312	-102.27773	937.53059	128.75837	-52.83831	851.03462	248.76024	-113.28204	827.50542	193.52047	-113.8743	803.69911	263.77239	309.41837	929.42894	192.59659	74.73758	939.59396	200.73879	243.40324	972.24106	-22.73798	100.09291	980.35927	-17.03561	285.33329	683.25577	18.8435	356.84444	449.46175	140.06457	315.3364	315.26623	9.55968	298.4411	275.6496	-193.53436	238.77787	310.5072	-220.22945	291.0918	102.75401	-161.7235	47.76525	670.40268	45.86964	62.82451	449.97421	184.27959	136.88456	267.72263	188.89034	122.6973	73.94698	85.70508	188.85195	90.55544	33.94527	138.64531	54.41014	251.34157
86	3.333	226.31798	1684.01535	157.33671	42.15551	1664.53644	157.93044	243.06311	1597.82623	61.42999	39.62308	1592.28394	66.61642	227.05275	1407.71347	235.28973	106.01205	1389.16061	230.16201	230.78022	1471.03729	87.88997	80.81484	1449.37119	92.11916	173.53991	1301.68793	9.37441	180.96378	1334.07028	272.27398	190.46808	1233.12904	295.18311	355.10616	1435.20035	154.24793	447.49565	1222.85202	131.04766	475.32497	1149.70299	85.64684	521.27735	1041.49246	121.95846	496.92532	914.17946	210.04234	533.57262	908.59711	137.00404	556.28952	871.10718	195.7571	-17.27126	1375.88394	169.49032	-69.57264	1198.90221	144.45006	-87.19193	1083.24509	150.50145	-97.17268	958.3342	214.10019	-33.40135	886.85783	337.24327	-99.38031	856.94389	292.4737	-91.21079	841.65955	365.23155	305.99243	943.9743	242.58196	70.52295	946.95915	249.18152	242.52264	983.09372	27.6752	99.50625	991.85829	32.85145	288.66316	692.28691	81.78274	356.31493	470.16045	234.25781	316.21893	321.01189	121.55007	297.81147	256.33255	-75.33965	237.91992	286.03535	-107.20854	290.84602	93.65875	-13.69868	50.93378	684.65248	71.68071	64.17049	451.98376	188.52951	136.99833	269.06507	189.28383	122.61272	75.21821	83.62084	189.04137	92.55386	34.00511	137.26687	54.69595	250.5438
87	3.367	229.988	1690.04562	211.01614	45.46577	1672.92755	210.80683	245.90374	1605.16129	113.8452	42.30488	1602.24716	118.2857	228.03368	1415.28168	282.92435	106.87181	1398.91769	281.13955	229.06744	1476.85715	136.42708	79.54914	1459.06876	143.41835	166.91486	1309.22836	58.96835	182.12111	1342.51205	321.1417	190.88268	1241.65749	344.6175	355.05203	1441.47675	198.20345	447.83009	1231.17271	165.26392	473.20011	1160.14206	116.02632	525.6366	1052.97485	141.53436	514.06326	920.06287	223.60363	543.33191	919.67644	147.36614	572.72076	879.11896	200.78283	-17.31763	1389.21173	223.61378	-73.09926	1213.14201	205.29493	-92.81627	1097.99034	216.44123	-93.50766	979.15306	295.79689	-16.41455	925.69214	421.01688	-84.66372	888.23669	386.48979	-69.88638	882.70439	459.57897	301.61554	953.47038	293.00665	65.86222	949.32213	296.41724	242.86633	989.12949	78.42734	100.02265	998.01079	81.8098	296.10701	697.54829	144.00568	352.03228	488.32657	322.46136	313.20553	320.12905	233.72845	296.52864	222.41577	50.18716	237.17356	245.02848	11.71142	286.97815	80.47642	146.22172	54.27267	695.89951	100.03322	65.36663	454.91489	191.82207	136.04565	271.50764	191.20735	123.54666	78.82704	83.60036	191.46452	96.11238	35.51983	135.59638	54.93206	250.36232
